<svg width="20" height="6" viewBox="0 0 20 6" fill="none" xmlns="http://www.w3.org/2000/svg">
    <path
        d="M14.6666 3C14.6666 4.28334 15.7166 5.33334 16.9999 5.33334C18.2833 5.33334 19.3333 4.28334 19.3333 3C19.3333 1.71667 18.2833 0.666672 16.9999 0.666672C15.7166 0.666672 14.6666 1.71667 14.6666 3ZM12.3333 3C12.3333 1.71667 11.2833 0.666671 9.99992 0.666671C8.71659 0.666671 7.66659 1.71667 7.66659 3C7.66659 4.28334 8.71658 5.33334 9.99992 5.33334C11.2833 5.33334 12.3333 4.28334 12.3333 3ZM5.33325 3C5.33325 1.71667 4.28325 0.666671 2.99992 0.666671C1.71659 0.666671 0.666586 1.71667 0.666586 3C0.666586 4.28334 1.71658 5.33334 2.99992 5.33334C4.28325 5.33334 5.33325 4.28334 5.33325 3Z"
        fill="#212529" />
</svg>